<svg width="635" height="685" viewBox="0 0 635 685" fill="none" xmlns="http://www.w3.org/2000/svg">
<path d="M157.045 276.78H249.956L296.045 356.522L186.796 547.464L0 549.171L157.045 276.78Z" fill="black"/>
<path d="M202.647 195.575L227.521 238.007H178.261L190.454 216.791L202.647 195.575Z" fill="black"/>
<path d="M473.535 273.352L426.488 353.471L334.387 352.836L225.055 161.942L318.17 -0.000149409L473.535 273.352Z" fill="black"/>
<path d="M520.469 353.795L471.284 353.758L496.228 311.281L508.348 332.538L520.469 353.795Z" fill="black"/>
<path d="M320.58 548.81L274.315 468.238L320.517 388.561L540.504 388.222L635 549.362L320.58 548.81Z" fill="black"/>
<path d="M227.451 549.701L251.862 507.002L276.391 549.72L251.921 549.711L227.451 549.701Z" fill="black"/>
</svg>
