<svg width="625" height="81" viewBox="0 0 625 81" fill="none" xmlns="http://www.w3.org/2000/svg">
<path d="M49.2 80.008C47.5573 80.008 46.3627 79.672 45.616 79C44.944 78.328 44.5333 77.2827 44.384 75.864L44.832 70.264C44.0853 71.4587 42.928 72.84 41.36 74.408C39.792 75.9013 37.7387 77.2453 35.2 78.44C32.6613 79.56 29.5627 80.12 25.904 80.12C22.32 80.12 18.96 79.4107 15.824 77.992C12.7627 76.5733 10.0373 74.5947 7.648 72.056C5.33333 69.5173 3.504 66.6053 2.16 63.32C0.890667 60.0347 0.256 56.5253 0.256 52.792C0.256 49.1333 0.890667 45.6987 2.16 42.488C3.504 39.2027 5.37067 36.328 7.76 33.864C10.1493 31.4 12.8747 29.4587 15.936 28.04C19.072 26.6213 22.3947 25.912 25.904 25.912C29.1893 25.912 31.9893 26.36 34.304 27.256C36.6187 28.0773 38.5973 29.1973 40.24 30.616C41.9573 31.96 43.4507 33.4907 44.72 35.208L44.496 30.504C44.4213 28.8613 44.7573 27.704 45.504 27.032C46.3253 26.2853 47.5947 25.912 49.312 25.912C50.7307 25.912 51.7387 26.136 52.336 26.584C53.008 27.032 53.456 27.6667 53.68 28.488C53.904 29.3093 54.016 30.3173 54.016 31.512V74.744C54.016 75.7893 53.904 76.7227 53.68 77.544C53.456 78.3653 53.008 78.9627 52.336 79.336C51.664 79.784 50.6187 80.008 49.2 80.008ZM27.584 70.712C30.5707 70.712 33.296 69.928 35.76 68.36C38.2987 66.792 40.2773 64.7013 41.696 62.088C43.1893 59.4 43.936 56.3387 43.936 52.904C43.936 49.3947 43.152 46.3333 41.584 43.72C40.0907 41.032 38.0747 38.9413 35.536 37.448C33.072 35.88 30.3467 35.096 27.36 35.096C23.8507 35.096 20.7893 35.9173 18.176 37.56C15.6373 39.128 13.6213 41.256 12.128 43.944C10.6347 46.632 9.888 49.6933 9.888 53.128C9.888 56.488 10.6347 59.512 12.128 62.2C13.6213 64.8133 15.6747 66.904 18.288 68.472C20.976 69.9653 24.0747 70.712 27.584 70.712ZM141.328 80.344C140.059 80.344 139.013 80.1573 138.192 79.784C137.445 79.4107 136.811 78.7387 136.288 77.768L115.568 32.632C114.747 30.84 114.56 29.496 115.008 28.6C115.456 27.6293 116.501 26.7333 118.144 25.912C119.637 25.1653 120.907 24.9413 121.952 25.24C122.997 25.464 123.893 26.4347 124.64 28.152L141.328 67.912L157.68 29.272C158.501 27.5547 159.397 26.3227 160.368 25.576C161.339 24.8293 162.869 24.9787 164.96 26.024C166.976 26.9947 167.984 28.1147 167.984 29.384C167.984 30.5787 167.648 31.8853 166.976 33.304L146.368 77.656C145.995 78.552 145.397 79.224 144.576 79.672C143.755 80.12 142.672 80.344 141.328 80.344ZM251.536 80.792C247.877 80.792 244.368 80.0827 241.008 78.664C237.723 77.2453 234.773 75.304 232.16 72.84C229.547 70.3013 227.493 67.352 226 63.992C224.507 60.632 223.76 56.9733 223.76 53.016C223.76 49.1333 224.469 45.5493 225.888 42.264C227.307 38.904 229.285 35.9547 231.824 33.416C234.363 30.8773 237.275 28.8987 240.56 27.48C243.92 25.9867 247.504 25.24 251.312 25.24C256.464 25.24 261.093 26.472 265.2 28.936C269.381 31.3253 272.704 34.6107 275.168 38.792C277.632 42.9733 278.864 47.6773 278.864 52.904C278.864 57.0107 278.117 60.7813 276.624 64.216C275.131 67.576 273.115 70.488 270.576 72.952C268.037 75.416 265.125 77.3573 261.84 78.776C258.555 80.12 255.12 80.792 251.536 80.792ZM251.312 71.048C254.448 71.048 257.36 70.264 260.048 68.696C262.736 67.128 264.901 64.9627 266.544 62.2C268.187 59.4373 269.008 56.3013 269.008 52.792C269.008 49.2827 268.224 46.184 266.656 43.496C265.163 40.808 263.072 38.7173 260.384 37.224C257.696 35.7307 254.635 34.984 251.2 34.984C247.915 34.984 244.928 35.768 242.24 37.336C239.627 38.904 237.499 41.032 235.856 43.72C234.288 46.408 233.504 49.4693 233.504 52.904C233.504 56.488 234.325 59.6613 235.968 62.424C237.611 65.112 239.776 67.24 242.464 68.808C245.227 70.3013 248.176 71.048 251.312 71.048ZM365.728 80.12C362.368 80.12 359.157 79.448 356.096 78.104C353.034 76.76 350.346 74.856 348.032 72.392C345.792 69.928 344 67.0533 342.656 63.768C341.386 60.408 340.752 56.7493 340.752 52.792C340.752 48.9093 341.386 45.3253 342.656 42.04C344 38.7547 345.792 35.9173 348.032 33.528C350.346 31.064 353.034 29.16 356.096 27.816C359.157 26.472 362.368 25.8 365.728 25.8C369.386 25.8 372.672 26.472 375.584 27.816C378.57 29.16 381.109 31.064 383.2 33.528C385.365 35.9173 387.008 38.792 388.128 42.152C389.248 45.4373 389.808 49.0213 389.808 52.904C389.882 56.8613 389.322 60.4827 388.128 63.768C387.008 67.0533 385.402 69.928 383.312 72.392C381.221 74.856 378.682 76.76 375.696 78.104C372.784 79.448 369.461 80.12 365.728 80.12ZM367.184 70.6C370.32 70.6 373.12 69.8533 375.584 68.36C378.122 66.8667 380.101 64.8133 381.52 62.2C383.013 59.512 383.76 56.4507 383.76 53.016C383.76 49.5067 383.013 46.4453 381.52 43.832C380.101 41.144 378.122 39.0533 375.584 37.56C373.12 36.0667 370.32 35.32 367.184 35.32C364.048 35.32 361.21 36.0667 358.672 37.56C356.133 39.0533 354.117 41.144 352.624 43.832C351.205 46.4453 350.496 49.5067 350.496 53.016C350.496 56.4507 351.205 59.512 352.624 62.2C354.117 64.8133 356.133 66.8667 358.672 68.36C361.285 69.8533 364.122 70.6 367.184 70.6ZM389.136 80.12C387.493 80.12 386.298 79.8213 385.552 79.224C384.805 78.6267 384.357 77.6187 384.208 76.2V6.088C384.208 4.968 384.282 4.03466 384.432 3.28799C384.656 2.54133 385.104 1.98133 385.776 1.608C386.522 1.16 387.605 0.935997 389.024 0.935997C390.442 0.935997 391.488 1.16 392.16 1.608C392.906 1.98133 393.392 2.54133 393.616 3.28799C393.84 4.03466 393.952 4.93067 393.952 5.976V74.968C393.952 76.0133 393.84 76.9467 393.616 77.768C393.392 78.5147 392.944 79.0747 392.272 79.448C391.6 79.896 390.554 80.12 389.136 80.12ZM505.088 80.008C503.445 80.008 502.251 79.672 501.504 79C500.832 78.328 500.421 77.2827 500.272 75.864L500.72 70.264C499.973 71.4587 498.816 72.84 497.248 74.408C495.68 75.9013 493.627 77.2453 491.088 78.44C488.549 79.56 485.451 80.12 481.792 80.12C478.208 80.12 474.848 79.4107 471.712 77.992C468.651 76.5733 465.925 74.5947 463.536 72.056C461.221 69.5173 459.392 66.6053 458.048 63.32C456.779 60.0347 456.144 56.5253 456.144 52.792C456.144 49.1333 456.779 45.6987 458.048 42.488C459.392 39.2027 461.259 36.328 463.648 33.864C466.037 31.4 468.763 29.4587 471.824 28.04C474.96 26.6213 478.283 25.912 481.792 25.912C485.077 25.912 487.877 26.36 490.192 27.256C492.507 28.0773 494.485 29.1973 496.128 30.616C497.845 31.96 499.339 33.4907 500.608 35.208L500.384 30.504C500.309 28.8613 500.645 27.704 501.392 27.032C502.213 26.2853 503.483 25.912 505.2 25.912C506.619 25.912 507.627 26.136 508.224 26.584C508.896 27.032 509.344 27.6667 509.568 28.488C509.792 29.3093 509.904 30.3173 509.904 31.512V74.744C509.904 75.7893 509.792 76.7227 509.568 77.544C509.344 78.3653 508.896 78.9627 508.224 79.336C507.552 79.784 506.507 80.008 505.088 80.008ZM483.472 70.712C486.459 70.712 489.184 69.928 491.648 68.36C494.187 66.792 496.165 64.7013 497.584 62.088C499.077 59.4 499.824 56.3387 499.824 52.904C499.824 49.3947 499.04 46.3333 497.472 43.72C495.979 41.032 493.963 38.9413 491.424 37.448C488.96 35.88 486.235 35.096 483.248 35.096C479.739 35.096 476.677 35.9173 474.064 37.56C471.525 39.128 469.509 41.256 468.016 43.944C466.523 46.632 465.776 49.6933 465.776 53.128C465.776 56.488 466.523 59.512 468.016 62.2C469.509 64.8133 471.563 66.904 474.176 68.472C476.864 69.9653 479.963 70.712 483.472 70.712ZM580.041 80.12C578.622 80.12 577.539 79.896 576.793 79.448C576.046 79.0747 575.561 78.5147 575.337 77.768C575.187 76.9467 575.113 76.0133 575.113 74.968V5.976C575.113 4.93067 575.225 4.03466 575.449 3.28799C575.673 2.54133 576.158 1.98133 576.905 1.608C577.651 1.16 578.734 0.935997 580.153 0.935997C581.646 0.935997 582.729 1.16 583.401 1.608C584.147 1.98133 584.595 2.54133 584.745 3.28799C584.969 4.03466 585.081 4.968 585.081 6.088V33.752C586.873 31.6613 589.038 29.7947 591.577 28.152C594.19 26.5093 597.363 25.688 601.097 25.688C605.502 25.688 609.422 26.7333 612.857 28.824C616.366 30.84 619.129 33.7147 621.145 37.448C623.235 41.1813 624.281 45.624 624.281 50.776V75.08C624.281 76.1253 624.169 77.0213 623.945 77.768C623.721 78.5147 623.273 79.0747 622.601 79.448C621.929 79.896 620.846 80.12 619.353 80.12C617.934 80.12 616.851 79.896 616.105 79.448C615.358 79.0747 614.873 78.5147 614.649 77.768C614.425 76.9467 614.313 76.0133 614.313 74.968V50.664C614.313 47.528 613.79 44.8027 612.745 42.488C611.699 40.1733 610.131 38.3813 608.041 37.112C606.025 35.8427 603.449 35.208 600.313 35.208C596.057 35.208 592.547 36.44 589.785 38.904C587.097 41.2933 585.529 44.504 585.081 48.536V75.08C585.081 76.1253 584.969 77.0213 584.745 77.768C584.521 78.5147 584.035 79.0747 583.289 79.448C582.617 79.896 581.534 80.12 580.041 80.12Z" fill="black"/>
</svg>
