<svg width="635" height="685" viewBox="0 0 635 685" fill="none" xmlns="http://www.w3.org/2000/svg">
<g clip-path="url(#clip0_652_59)">
<path d="M157.045 276.78H249.956L296.045 356.522L186.796 547.464L0 549.171L157.045 276.78Z" fill="#2F495C"/>
<path d="M202.647 195.575L227.521 238.007H178.261L190.454 216.791L202.647 195.575Z" fill="#85C1E9"/>
<path d="M473.535 273.352L426.488 353.471L334.387 352.836L225.055 161.942L318.17 -0.000152588L473.535 273.352Z" fill="#2F495C"/>
<path d="M520.469 353.795L471.284 353.758L496.228 311.281L508.348 332.538L520.469 353.795Z" fill="#85C1E9"/>
<path d="M320.58 548.81L274.315 468.238L320.517 388.561L540.504 388.222L635 549.362L320.58 548.81Z" fill="#2F495C"/>
<path d="M227.451 549.701L251.862 507.002L276.391 549.72L251.921 549.711L227.451 549.701Z" fill="#85C1E9"/>
<path d="M52.944 677.072C51.3013 677.072 50.1067 676.736 49.36 676.064C48.688 675.392 48.2773 674.347 48.128 672.928L48.576 667.328C47.8293 668.523 46.672 669.904 45.104 671.472C43.536 672.965 41.4827 674.309 38.944 675.504C36.4053 676.624 33.3067 677.184 29.648 677.184C26.064 677.184 22.704 676.475 19.568 675.056C16.5067 673.637 13.7813 671.659 11.392 669.12C9.07733 666.581 7.248 663.669 5.904 660.384C4.63467 657.099 4 653.589 4 649.856C4 646.197 4.63467 642.763 5.904 639.552C7.248 636.267 9.11467 633.392 11.504 630.928C13.8933 628.464 16.6187 626.523 19.68 625.104C22.816 623.685 26.1387 622.976 29.648 622.976C32.9333 622.976 35.7333 623.424 38.048 624.32C40.3627 625.141 42.3413 626.261 43.984 627.68C45.7013 629.024 47.1947 630.555 48.464 632.272L48.24 627.568C48.1653 625.925 48.5013 624.768 49.248 624.096C50.0693 623.349 51.3387 622.976 53.056 622.976C54.4747 622.976 55.4827 623.2 56.08 623.648C56.752 624.096 57.2 624.731 57.424 625.552C57.648 626.373 57.76 627.381 57.76 628.576V671.808C57.76 672.853 57.648 673.787 57.424 674.608C57.2 675.429 56.752 676.027 56.08 676.4C55.408 676.848 54.3627 677.072 52.944 677.072ZM31.328 667.776C34.3147 667.776 37.04 666.992 39.504 665.424C42.0427 663.856 44.0213 661.765 45.44 659.152C46.9333 656.464 47.68 653.403 47.68 649.968C47.68 646.459 46.896 643.397 45.328 640.784C43.8347 638.096 41.8187 636.005 39.28 634.512C36.816 632.944 34.0907 632.16 31.104 632.16C27.5947 632.16 24.5333 632.981 21.92 634.624C19.3813 636.192 17.3653 638.32 15.872 641.008C14.3787 643.696 13.632 646.757 13.632 650.192C13.632 653.552 14.3787 656.576 15.872 659.264C17.3653 661.877 19.4187 663.968 22.032 665.536C24.72 667.029 27.8187 667.776 31.328 667.776ZM145.072 677.408C143.803 677.408 142.757 677.221 141.936 676.848C141.189 676.475 140.555 675.803 140.032 674.832L119.312 629.696C118.491 627.904 118.304 626.56 118.752 625.664C119.2 624.693 120.245 623.797 121.888 622.976C123.381 622.229 124.651 622.005 125.696 622.304C126.741 622.528 127.637 623.499 128.384 625.216L145.072 664.976L161.424 626.336C162.245 624.619 163.141 623.387 164.112 622.64C165.083 621.893 166.613 622.043 168.704 623.088C170.72 624.059 171.728 625.179 171.728 626.448C171.728 627.643 171.392 628.949 170.72 630.368L150.112 674.72C149.739 675.616 149.141 676.288 148.32 676.736C147.499 677.184 146.416 677.408 145.072 677.408ZM255.28 677.856C251.621 677.856 248.112 677.147 244.752 675.728C241.467 674.309 238.517 672.368 235.904 669.904C233.291 667.365 231.237 664.416 229.744 661.056C228.251 657.696 227.504 654.037 227.504 650.08C227.504 646.197 228.213 642.613 229.632 639.328C231.051 635.968 233.029 633.019 235.568 630.48C238.107 627.941 241.019 625.963 244.304 624.544C247.664 623.051 251.248 622.304 255.056 622.304C260.208 622.304 264.837 623.536 268.944 626C273.125 628.389 276.448 631.675 278.912 635.856C281.376 640.037 282.608 644.741 282.608 649.968C282.608 654.075 281.861 657.845 280.368 661.28C278.875 664.64 276.859 667.552 274.32 670.016C271.781 672.48 268.869 674.421 265.584 675.84C262.299 677.184 258.864 677.856 255.28 677.856ZM255.056 668.112C258.192 668.112 261.104 667.328 263.792 665.76C266.48 664.192 268.645 662.027 270.288 659.264C271.931 656.501 272.752 653.365 272.752 649.856C272.752 646.347 271.968 643.248 270.4 640.56C268.907 637.872 266.816 635.781 264.128 634.288C261.44 632.795 258.379 632.048 254.944 632.048C251.659 632.048 248.672 632.832 245.984 634.4C243.371 635.968 241.243 638.096 239.6 640.784C238.032 643.472 237.248 646.533 237.248 649.968C237.248 653.552 238.069 656.725 239.712 659.488C241.355 662.176 243.52 664.304 246.208 665.872C248.971 667.365 251.92 668.112 255.056 668.112ZM369.472 677.184C366.112 677.184 362.901 676.512 359.84 675.168C356.778 673.824 354.09 671.92 351.776 669.456C349.536 666.992 347.744 664.117 346.4 660.832C345.13 657.472 344.496 653.813 344.496 649.856C344.496 645.973 345.13 642.389 346.4 639.104C347.744 635.819 349.536 632.981 351.776 630.592C354.09 628.128 356.778 626.224 359.84 624.88C362.901 623.536 366.112 622.864 369.472 622.864C373.13 622.864 376.416 623.536 379.328 624.88C382.314 626.224 384.853 628.128 386.944 630.592C389.109 632.981 390.752 635.856 391.872 639.216C392.992 642.501 393.552 646.085 393.552 649.968C393.626 653.925 393.066 657.547 391.872 660.832C390.752 664.117 389.146 666.992 387.056 669.456C384.965 671.92 382.426 673.824 379.44 675.168C376.528 676.512 373.205 677.184 369.472 677.184ZM370.928 667.664C374.064 667.664 376.864 666.917 379.328 665.424C381.866 663.931 383.845 661.877 385.264 659.264C386.757 656.576 387.504 653.515 387.504 650.08C387.504 646.571 386.757 643.509 385.264 640.896C383.845 638.208 381.866 636.117 379.328 634.624C376.864 633.131 374.064 632.384 370.928 632.384C367.792 632.384 364.954 633.131 362.416 634.624C359.877 636.117 357.861 638.208 356.368 640.896C354.949 643.509 354.24 646.571 354.24 650.08C354.24 653.515 354.949 656.576 356.368 659.264C357.861 661.877 359.877 663.931 362.416 665.424C365.029 666.917 367.866 667.664 370.928 667.664ZM392.88 677.184C391.237 677.184 390.042 676.885 389.296 676.288C388.549 675.691 388.101 674.683 387.952 673.264V603.152C387.952 602.032 388.026 601.099 388.176 600.352C388.4 599.605 388.848 599.045 389.52 598.672C390.266 598.224 391.349 598 392.768 598C394.186 598 395.232 598.224 395.904 598.672C396.65 599.045 397.136 599.605 397.36 600.352C397.584 601.099 397.696 601.995 397.696 603.04V672.032C397.696 673.077 397.584 674.011 397.36 674.832C397.136 675.579 396.688 676.139 396.016 676.512C395.344 676.96 394.298 677.184 392.88 677.184ZM508.832 677.072C507.189 677.072 505.995 676.736 505.248 676.064C504.576 675.392 504.165 674.347 504.016 672.928L504.464 667.328C503.717 668.523 502.56 669.904 500.992 671.472C499.424 672.965 497.371 674.309 494.832 675.504C492.293 676.624 489.195 677.184 485.536 677.184C481.952 677.184 478.592 676.475 475.456 675.056C472.395 673.637 469.669 671.659 467.28 669.12C464.965 666.581 463.136 663.669 461.792 660.384C460.523 657.099 459.888 653.589 459.888 649.856C459.888 646.197 460.523 642.763 461.792 639.552C463.136 636.267 465.003 633.392 467.392 630.928C469.781 628.464 472.507 626.523 475.568 625.104C478.704 623.685 482.027 622.976 485.536 622.976C488.821 622.976 491.621 623.424 493.936 624.32C496.251 625.141 498.229 626.261 499.872 627.68C501.589 629.024 503.083 630.555 504.352 632.272L504.128 627.568C504.053 625.925 504.389 624.768 505.136 624.096C505.957 623.349 507.227 622.976 508.944 622.976C510.363 622.976 511.371 623.2 511.968 623.648C512.64 624.096 513.088 624.731 513.312 625.552C513.536 626.373 513.648 627.381 513.648 628.576V671.808C513.648 672.853 513.536 673.787 513.312 674.608C513.088 675.429 512.64 676.027 511.968 676.4C511.296 676.848 510.251 677.072 508.832 677.072ZM487.216 667.776C490.203 667.776 492.928 666.992 495.392 665.424C497.931 663.856 499.909 661.765 501.328 659.152C502.821 656.464 503.568 653.403 503.568 649.968C503.568 646.459 502.784 643.397 501.216 640.784C499.723 638.096 497.707 636.005 495.168 634.512C492.704 632.944 489.979 632.16 486.992 632.16C483.483 632.16 480.421 632.981 477.808 634.624C475.269 636.192 473.253 638.32 471.76 641.008C470.267 643.696 469.52 646.757 469.52 650.192C469.52 653.552 470.267 656.576 471.76 659.264C473.253 661.877 475.307 663.968 477.92 665.536C480.608 667.029 483.707 667.776 487.216 667.776ZM583.785 677.184C582.366 677.184 581.283 676.96 580.537 676.512C579.79 676.139 579.305 675.579 579.081 674.832C578.931 674.011 578.857 673.077 578.857 672.032V603.04C578.857 601.995 578.969 601.099 579.193 600.352C579.417 599.605 579.902 599.045 580.649 598.672C581.395 598.224 582.478 598 583.897 598C585.39 598 586.473 598.224 587.145 598.672C587.891 599.045 588.339 599.605 588.489 600.352C588.713 601.099 588.825 602.032 588.825 603.152V630.816C590.617 628.725 592.782 626.859 595.321 625.216C597.934 623.573 601.107 622.752 604.841 622.752C609.246 622.752 613.166 623.797 616.601 625.888C620.11 627.904 622.873 630.779 624.889 634.512C626.979 638.245 628.025 642.688 628.025 647.84V672.144C628.025 673.189 627.913 674.085 627.689 674.832C627.465 675.579 627.017 676.139 626.345 676.512C625.673 676.96 624.59 677.184 623.097 677.184C621.678 677.184 620.595 676.96 619.849 676.512C619.102 676.139 618.617 675.579 618.393 674.832C618.169 674.011 618.057 673.077 618.057 672.032V647.728C618.057 644.592 617.534 641.867 616.489 639.552C615.443 637.237 613.875 635.445 611.785 634.176C609.769 632.907 607.193 632.272 604.057 632.272C599.801 632.272 596.291 633.504 593.529 635.968C590.841 638.357 589.273 641.568 588.825 645.6V672.144C588.825 673.189 588.713 674.085 588.489 674.832C588.265 675.579 587.779 676.139 587.033 676.512C586.361 676.96 585.278 677.184 583.785 677.184Z" fill="#2F495C"/>
</g>
<defs>
<clipPath id="clip0_652_59">
<rect width="635" height="685" fill="white"/>
</clipPath>
</defs>
</svg>
